<svg width="22" height="17" fill="none" xmlns="http://www.w3.org/2000/svg" viewBox="0 0 22 17"><path d="M20 .5C18.89.15 17.67 0 16.5 0c-1.95 0-4.05.4-5.5 1.5C9.55.4 7.45 0 5.5 0 3.55 0 1.45.4 0 1.5v14.65c0 .25.25.5.5.5.1 0 .15-.05.25-.05 1.35-.65 3.3-1.1 4.75-1.1 1.95 0 4.05.4 5.5 1.5 1.35-.85 3.8-1.5 5.5-1.5 1.65 0 3.35.3 4.75 1.05.1.05.15.05.25.05.25 0 .5-.25.5-.5V1.5c-.6-.45-1.25-.75-2-1ZM20 14c-1.1-.35-2.3-.5-3.5-.5-1.7 0-4.15.65-5.5 1.5V3.5c1.35-.85 3.8-1.5 5.5-1.5 1.2 0 2.4.15 3.5.5V14Z" fill="#A6ABB9"/></svg>
