<svg aria-hidden="true" style="position: absolute; width: 0; height: 0; overflow: hidden;" version="1.1" xmlns="http://www.w3.org/2000/svg" xmlns:xlink="http://www.w3.org/1999/xlink">
<defs>
<symbol id="yellow_star" viewBox="0 0 34 32">
<path fill="#ff6b08" style="fill: var(--color1, #ff6b08)" d="M17 0l3.817 11.747h12.351l-9.992 7.26 3.817 11.747-9.992-7.26-9.992 7.26 3.817-11.747-9.992-7.26h12.351l3.817-11.747z"></path>
</symbol>
<symbol id="white_star" viewBox="0 0 34 32">
<path fill="none" stroke="#ff6b08" style="stroke: var(--color1, #ff6b08)" stroke-linejoin="miter" stroke-linecap="butt" stroke-miterlimit="4" stroke-width="2" d="M17 3.236l3.090 9.511h10l-8.090 5.878 0.225 0.691 2.866 8.82-8.090-5.878-8.090 5.878 3.090-9.511-8.090-5.878h10l3.090-9.511z"></path>
</symbol>
<symbol id="white_book" viewBox="0 0 41 32">
<path fill="#6d7a8d" style="fill: var(--color2, #6d7a8d)" d="M37.647 0.941c-2.089-0.659-4.386-0.941-6.588-0.941-3.671 0-7.624 0.753-10.353 2.824-2.729-2.071-6.682-2.824-10.353-2.824s-7.624 0.753-10.353 2.824v27.576c0 0.471 0.471 0.941 0.941 0.941 0.188 0 0.282-0.094 0.471-0.094 2.541-1.224 6.212-2.071 8.941-2.071 3.671 0 7.624 0.753 10.353 2.824 2.541-1.6 7.153-2.824 10.353-2.824 3.106 0 6.306 0.565 8.941 1.976 0.188 0.094 0.282 0.094 0.471 0.094 0.471 0 0.941-0.471 0.941-0.941v-27.482c-1.129-0.847-2.353-1.412-3.765-1.882zM37.647 26.353c-2.071-0.659-4.329-0.941-6.588-0.941-3.2 0-7.812 1.224-10.353 2.824v-21.647c2.541-1.6 7.153-2.824 10.353-2.824 2.259 0 4.518 0.282 6.588 0.941v21.647z"></path>
<path fill="#6d7a8d" style="fill: var(--color2, #6d7a8d)" d="M31.059 11.294c1.656 0 3.256 0.169 4.706 0.489v-2.861c-1.487-0.282-3.087-0.452-4.706-0.452-3.2 0-6.099 0.546-8.471 1.562v3.125c2.127-1.205 5.082-1.864 8.471-1.864z"></path>
<path fill="#6d7a8d" style="fill: var(--color2, #6d7a8d)" d="M22.588 15.040v3.125c2.127-1.205 5.082-1.864 8.471-1.864 1.656 0 3.256 0.169 4.706 0.489v-2.861c-1.487-0.282-3.087-0.452-4.706-0.452-3.2 0-6.099 0.565-8.471 1.562z"></path>
<path fill="#6d7a8d" style="fill: var(--color2, #6d7a8d)" d="M31.059 18.504c-3.2 0-6.099 0.546-8.471 1.562v3.125c2.127-1.205 5.082-1.864 8.471-1.864 1.656 0 3.256 0.169 4.706 0.489v-2.861c-1.487-0.301-3.087-0.452-4.706-0.452z"></path>
</symbol>
<symbol id="yellow_book" viewBox="0 0 41 32">
<path fill="#ff6b08" style="fill: var(--color1, #ff6b08)" d="M37.647 0.941c-2.089-0.659-4.386-0.941-6.588-0.941-3.671 0-7.624 0.753-10.353 2.824-2.729-2.071-6.682-2.824-10.353-2.824s-7.624 0.753-10.353 2.824v27.576c0 0.471 0.471 0.941 0.941 0.941 0.188 0 0.282-0.094 0.471-0.094 2.541-1.224 6.212-2.071 8.941-2.071 3.671 0 7.624 0.753 10.353 2.824 2.541-1.6 7.153-2.824 10.353-2.824 3.106 0 6.306 0.565 8.941 1.976 0.188 0.094 0.282 0.094 0.471 0.094 0.471 0 0.941-0.471 0.941-0.941v-27.482c-1.129-0.847-2.353-1.412-3.765-1.882zM37.647 26.353c-2.071-0.659-4.329-0.941-6.588-0.941-3.2 0-7.812 1.224-10.353 2.824v-21.647c2.541-1.6 7.153-2.824 10.353-2.824 2.259 0 4.518 0.282 6.588 0.941v21.647z"></path>
<path fill="#ff6b08" style="fill: var(--color1, #ff6b08)" d="M31.059 11.294c1.656 0 3.256 0.169 4.706 0.489v-2.861c-1.487-0.282-3.087-0.452-4.706-0.452-3.2 0-6.099 0.546-8.471 1.562v3.125c2.127-1.205 5.082-1.864 8.471-1.864z"></path>
<path fill="#ff6b08" style="fill: var(--color1, #ff6b08)" d="M22.588 15.040v3.125c2.127-1.205 5.082-1.864 8.471-1.864 1.656 0 3.256 0.169 4.706 0.489v-2.861c-1.487-0.282-3.087-0.452-4.706-0.452-3.2 0-6.099 0.565-8.471 1.562z"></path>
<path fill="#ff6b08" style="fill: var(--color1, #ff6b08)" d="M31.059 18.504c-3.2 0-6.099 0.546-8.471 1.562v3.125c2.127-1.205 5.082-1.864 8.471-1.864 1.656 0 3.256 0.169 4.706 0.489v-2.861c-1.487-0.301-3.087-0.452-4.706-0.452z"></path>
</symbol>

<symbol id="icon-delete" viewBox="0 0 25 32">
<path fill="#a6abb9" style="fill: var(--color1, #a6abb9)" d="M19.556 10.667v17.778h-14.222v-17.778h14.222zM16.889 0h-8.889l-1.778 1.778h-6.222v3.556h24.889v-3.556h-6.222l-1.778-1.778zM23.111 7.111h-21.333v21.333c0 1.956 1.6 3.556 3.556 3.556h14.222c1.956 0 3.556-1.6 3.556-3.556v-21.333z"></path>
</symbol>

</defs>
</svg>
