<svg id="eyeOff" width="16" height="16" viewBox="0 0 16 16" fill="none" xmlns="http://www.w3.org/2000/svg">
<path d="M1.99996 2L4.39273 4.39277M14 14L11.6074 11.6075M9.24987 12.5497C8.8451 12.6265 8.42737 12.6667 8.00027 12.6667C5.01516 12.6667 2.4883 10.7047 1.63879 7.99998C1.87006 7.26367 2.22563 6.5824 2.68092 5.98079M6.58575 6.58579C6.94767 6.22386 7.44767 6 7.99996 6C9.10453 6 9.99996 6.89543 9.99996 8C9.99996 8.55228 9.7761 9.05229 9.41417 9.41421M6.58575 6.58579L9.41417 9.41421M6.58575 6.58579L4.39273 4.39277M9.41417 9.41421L4.39273 4.39277M9.41417 9.41421L11.6074 11.6075M4.39273 4.39277C5.43261 3.72236 6.671 3.33333 8.00025 3.33333C10.9854 3.33333 13.5122 5.29528 14.3617 8.00002C13.8905 9.50048 12.903 10.7723 11.6074 11.6075" stroke=""  stroke-width="1.5" stroke-linecap="round" stroke-linejoin="round"/>
</svg>
