<svg width="23" height="17" viewBox="0 0 23 17" id="quatation" fill="none" xmlns="http://www.w3.org/2000/svg">
<path d="M19.8119 0.454997L20.3429 1.281C16.6849 3.68033 14.8559 6.07967 14.8559 8.479C14.8559 9.69833 15.3869 10.4063 16.4489 10.603L18.9269 8.302C19.7135 8.57733 20.4215 9.08867 21.0509 9.836C21.7195 10.544 22.0539 11.4683 22.0539 12.609C22.0539 13.7497 21.6015 14.733 20.6969 15.559C19.7922 16.3457 18.5925 16.739 17.0979 16.739C15.6425 16.739 14.4232 16.2473 13.4399 15.264C12.4959 14.2413 12.0239 12.845 12.0239 11.075C12.0239 7.22033 14.6199 3.68033 19.8119 0.454997ZM8.71986 0.454997L9.25086 1.281C5.59286 3.68033 3.76386 6.07967 3.76386 8.479C3.76386 9.69833 4.29486 10.4063 5.35686 10.603L7.83486 8.302C8.62152 8.57733 9.32952 9.08867 9.95886 9.836C10.6275 10.544 10.9619 11.4683 10.9619 12.609C10.9619 13.7497 10.5095 14.733 9.60486 15.559C8.70019 16.3457 7.50052 16.739 6.00586 16.739C4.55052 16.739 3.33119 16.2473 2.34786 15.264C1.40386 14.2413 0.931856 12.845 0.931856 11.075C0.931856 7.22033 3.52786 3.68033 8.71986 0.454997Z" fill="#FF6B08"/>
</svg>
